<svg width="26" height="25" viewBox="0 0 26 25" fill="none" xmlns="http://www.w3.org/2000/svg">
<g clip-path="url(#clip0_116_666)">
<path d="M22.8278 6.88911C22.3612 6.88911 21.9334 7.278 21.9334 7.78355V15.0947C21.9334 16.6113 20.8056 17.8169 19.4056 17.8169H4.47229C3.0334 17.8169 1.94451 16.6113 1.94451 15.0947V7.74466C1.94451 7.278 1.55562 6.85022 1.05007 6.85022C0.544513 6.85022 0.155624 7.23911 0.155624 7.74466V15.0558C0.155624 17.5058 2.06118 19.528 4.4334 19.528H19.4056C21.7778 19.528 23.6834 17.5447 23.6834 15.0558V7.74466C23.7223 7.278 23.2945 6.88911 22.8278 6.88911Z" fill="black"/>
<path d="M11.3167 12.6836C11.4723 12.8392 11.7056 12.9558 11.939 12.9558C12.1723 12.9558 12.3667 12.878 12.5612 12.6836L17.3056 7.97804C17.6556 7.62804 17.6556 7.0836 17.3056 6.73359C16.9556 6.38359 16.4112 6.38359 16.0612 6.73359L12.8334 9.92248V-0.421962C12.8334 -0.888628 12.4445 -1.31641 11.939 -1.31641C11.4723 -1.31641 11.0445 -0.927517 11.0445 -0.421962V10.0003L7.81674 6.77248C7.46674 6.42248 6.9223 6.42248 6.5723 6.77248C6.2223 7.12248 6.2223 7.66693 6.5723 8.01693L11.3167 12.6836Z" fill="black"/>
</g>
<defs>
<clipPath id="clip0_116_666">
<rect x="0.155624" y="0.105835" width="24.8889" height="24.8889" rx="12.4444" fill="white"/>
</clipPath>
</defs>
</svg>
