<svg width="23" height="25" viewBox="0 0 23 25" fill="none" xmlns="http://www.w3.org/2000/svg">
<path d="M22.5667 21.3502L21.8667 14.3113C21.7501 13.028 20.6612 12.0558 19.3779 12.0558H3.8223C2.53896 12.0558 1.48896 13.028 1.33341 14.3113L0.633407 21.3502C0.555629 22.0502 0.788962 22.7502 1.25563 23.2558C1.7223 23.7613 2.38341 24.0725 3.08341 24.0725H20.039C20.739 24.0725 21.4001 23.7613 21.8667 23.2558C22.4112 22.7502 22.6056 22.0502 22.5667 21.3502ZM20.6223 22.0891C20.4667 22.2447 20.2723 22.3225 20.0779 22.3225H3.1223C2.92785 22.3225 2.73341 22.2447 2.57785 22.0891C2.4223 21.9336 2.38341 21.7391 2.38341 21.5058L3.08341 14.4669C3.1223 14.078 3.43341 13.8058 3.8223 13.8058H19.3779C19.7667 13.8058 20.0779 14.078 20.1167 14.4669L20.8167 21.5058C20.8167 21.7391 20.7779 21.9336 20.6223 22.0891Z" fill="black"/>
<path d="M11.6001 15.167C10.0056 15.167 8.68341 16.4892 8.68341 18.0837C8.68341 19.717 10.0056 21.0003 11.6001 21.0003C13.2334 21.0003 14.5167 19.6781 14.5167 18.0837C14.5167 16.4892 13.2334 15.167 11.6001 15.167ZM11.6001 19.2503C10.939 19.2503 10.4334 18.7059 10.4334 18.0837C10.4334 17.4225 10.9779 16.917 11.6001 16.917C12.2612 16.917 12.7667 17.4614 12.7667 18.0837C12.7667 18.7448 12.2612 19.2503 11.6001 19.2503Z" fill="black"/>
<path d="M1.52785 7.89473C1.60563 9.60584 3.08341 10.5003 4.09452 10.5003H6.81674H6.85563C8.10007 10.4225 9.34452 9.60584 9.34452 7.89473V7.15584C10.6667 7.15584 13.1945 7.15584 14.4779 7.15584V7.89473C14.4779 9.60584 15.7223 10.4225 16.9667 10.5003H19.7279C20.7779 10.5003 22.2167 9.60584 22.2945 7.89473C22.2945 7.77806 22.2945 6.37806 22.2945 6.30028C22.2945 6.2614 22.2945 6.22251 22.2945 6.18362C22.1779 5.05584 21.789 4.12251 21.089 3.38362L21.0501 3.34473C20.039 2.4114 18.8723 1.90584 17.9779 1.59473C15.3334 0.583618 12.0279 0.583618 11.8723 0.583618C9.53896 0.622507 8.06118 0.816952 5.80563 1.59473C4.8723 1.94473 3.70563 2.45028 2.69452 3.34473L2.65563 3.38362C1.95563 4.12251 1.56674 5.05584 1.45007 6.18362C1.45007 6.22251 1.45007 6.2614 1.45007 6.30028C1.48896 6.37806 1.52785 7.73917 1.52785 7.89473ZM3.93896 4.62806C4.71674 3.92806 5.65007 3.53917 6.42785 3.22806C8.45007 2.48917 9.73341 2.37251 11.9112 2.29473C12.1056 2.29473 15.0612 2.33362 17.3945 3.22806C18.2112 3.53917 19.1445 3.92806 19.8834 4.62806C20.2723 5.05584 20.5056 5.63917 20.5834 6.30028C20.5834 6.41695 20.5834 7.70028 20.5834 7.81695C20.5445 8.63362 19.7667 8.75029 19.7667 8.75029H17.0834C16.6945 8.7114 16.2667 8.55584 16.2667 7.89473V6.30028C16.2667 5.9114 16.0334 5.5614 15.6445 5.48362C15.3723 5.32806 8.48896 5.32806 8.21674 5.44473C7.86674 5.5614 7.59452 5.9114 7.59452 6.2614V7.89473C7.59452 8.55584 7.16674 8.7114 6.77785 8.75029H4.09452C4.09452 8.75029 3.31674 8.63362 3.27785 7.85584C3.27785 7.73917 3.27785 7.3114 3.27785 6.92251C3.27785 6.65029 3.27785 6.45584 3.27785 6.33917C3.31674 5.60029 3.55007 5.05584 3.93896 4.62806Z" fill="black"/>
</svg>
