<svg width="33" height="18" viewBox="0 0 33 18" fill="none" xmlns="http://www.w3.org/2000/svg">
<path d="M0.903475 0.683655C1.33046 0.263838 1.90951 0.0279972 2.51327 0.0279972C3.11704 0.0279972 3.69608 0.263838 4.12307 0.683655L16.1749 12.5366L28.2268 0.683655C28.4368 0.469772 28.6881 0.299171 28.9659 0.181807C29.2437 0.0644443 29.5425 0.00266837 29.8448 8.4549e-05C30.1471 -0.00249927 30.4469 0.0541623 30.7268 0.16676C31.0066 0.279357 31.2608 0.445638 31.4746 0.655898C31.6884 0.866159 31.8575 1.11619 31.972 1.3914C32.0865 1.66661 32.1441 1.96149 32.1414 2.25883C32.1388 2.55617 32.076 2.85002 31.9567 3.12323C31.8373 3.39645 31.6639 3.64355 31.4464 3.85012L17.7847 17.2864C17.3577 17.7062 16.7787 17.942 16.1749 17.942C15.5712 17.942 14.9921 17.7062 14.5651 17.2864L0.903475 3.85012C0.476614 3.43018 0.236816 2.86069 0.236816 2.26689C0.236816 1.67309 0.476614 1.1036 0.903475 0.683655Z" fill="#0D0D0D"/>
</svg>
