<svg width="26" height="26" viewBox="0 0 26 26" fill="none" xmlns="http://www.w3.org/2000/svg">
<g clip-path="url(#clip0_116_676)">
<path d="M12.639 17.106C15.1304 17.106 17.1501 15.0863 17.1501 12.5949C17.1501 10.1034 15.1304 8.08374 12.639 8.08374C10.1475 8.08374 8.12785 10.1034 8.12785 12.5949C8.12785 15.0863 10.1475 17.106 12.639 17.106Z" fill="black"/>
<path d="M19.2118 4.66113C18.7062 4.66113 18.2785 5.08891 18.2785 5.59447C18.2785 6.10002 18.7062 6.5278 19.2118 6.5278C19.7174 6.5278 20.1451 6.10002 20.1451 5.59447C20.1451 5.08891 19.7562 4.66113 19.2118 4.66113Z" fill="black"/>
<path d="M17.539 0.150146H7.66118C3.7334 0.150146 0.54451 3.33904 0.54451 7.26681V17.0668C0.54451 21.0724 3.7334 24.2613 7.66118 24.2613H17.4612C21.4667 24.2613 24.6556 21.0724 24.6556 17.1446V7.26681C24.6556 3.33904 21.4667 0.150146 17.539 0.150146ZM12.639 18.1168C9.3334 18.1168 6.72784 15.4335 6.72784 12.2057C6.72784 8.97792 9.37229 6.29459 12.639 6.29459C15.8667 6.29459 18.5112 8.97792 18.5112 12.2057C18.5112 15.4335 15.9056 18.1168 12.639 18.1168ZM20.8056 6.83904C20.4167 7.26681 19.8334 7.50015 19.1723 7.50015C18.589 7.50015 18.0056 7.26681 17.539 6.83904C17.1112 6.41126 16.8778 5.86681 16.8778 5.2057C16.8778 4.54459 17.1112 4.03904 17.539 3.57237C17.9667 3.1057 18.5112 2.87237 19.1723 2.87237C19.7556 2.87237 20.3778 3.1057 20.8056 3.53348C21.1945 4.03904 21.4667 4.62237 21.4667 5.24459C21.4278 5.86681 21.1945 6.41126 20.8056 6.83904Z" fill="black"/>
</g>
<defs>
<clipPath id="clip0_116_676">
<rect x="0.155624" y="0.150146" width="24.8889" height="24.8889" rx="12.4444" fill="white"/>
</clipPath>
</defs>
</svg>
