<svg width="25" height="25" viewBox="0 0 25 25" fill="none" xmlns="http://www.w3.org/2000/svg">
<path d="M12.6001 0.63916C5.91119 0.63916 0.544525 6.00583 0.544525 12.6947C0.544525 19.3836 5.91119 24.7503 12.6001 24.7503C19.289 24.7503 24.6556 19.3836 24.6556 12.6947C24.6556 6.00583 19.289 0.63916 12.6001 0.63916ZM15.789 7.98916C15.3612 7.98916 15.0112 7.98916 14.5834 7.98916C14.039 7.98916 13.689 8.26138 13.689 8.76694C13.6501 9.19472 13.689 9.66138 13.689 10.0114C13.689 10.1669 13.7279 10.1669 13.8445 10.1669C14.4279 10.1669 15.0501 10.1669 15.6334 10.1669C15.789 10.1669 15.8667 10.2058 15.8667 10.4003C15.8279 11.1003 15.7112 11.8392 15.7112 12.5392C15.7112 12.6947 15.6723 12.6947 15.4779 12.6947C14.9723 12.6947 14.5445 12.6947 14.039 12.6947C13.7279 12.6947 13.7667 12.6558 13.7667 12.9669C13.7667 15.2225 13.7667 17.3614 13.7667 19.6169C13.7667 19.8503 13.7279 19.8892 13.4945 19.8892C12.6779 19.8892 11.8612 19.8892 11.0445 19.8892C10.8112 19.8892 10.7723 19.8503 10.7723 19.6169C10.7723 18.4503 10.7723 17.3614 10.7723 16.2725C10.7723 15.1836 10.7723 14.0169 10.7723 12.8892C10.7723 12.8561 10.7705 12.8247 10.7659 12.7963C10.7327 12.5926 10.435 12.6558 10.2287 12.6558C10.1135 12.6558 9.99373 12.6558 9.87368 12.6558C9.62069 12.6558 9.25564 12.7922 9.25564 12.5392C9.25564 11.8392 9.25564 11.178 9.25564 10.4003C9.25564 10.2447 9.29453 10.2447 9.41119 10.2447C9.80008 10.2447 10.1112 10.2447 10.5001 10.2447C10.7334 10.2447 10.7723 10.2058 10.7723 9.97249C10.7723 9.42805 10.7723 8.92249 10.7723 8.33916C10.7723 7.67805 10.9279 7.09472 11.3167 6.55027C11.8223 5.88916 12.5223 5.57805 13.3001 5.50027C14.1167 5.46138 14.9334 5.50027 15.7501 5.46138C15.8667 5.46138 15.9056 5.50027 15.9056 5.61694C15.9056 6.21227 15.9056 6.83572 15.9056 7.43946C15.9056 7.64959 15.9991 7.98916 15.789 7.98916Z" fill="black"/>
</svg>
