<svg width="128" height="153" viewBox="0 0 128 153" fill="none" xmlns="http://www.w3.org/2000/svg">
<path d="M120.768 52.7856C120.061 50.6959 119.265 48.6487 118.378 46.6442C117.877 45.5066 117.347 44.3841 116.788 43.2766C114.378 38.5109 111.439 34.0107 107.973 29.7761C96.6171 15.9198 82.9082 8.9917 66.8461 8.9917C50.788 8.9917 37.0812 15.9198 25.7256 29.7761C14.37 43.6324 8.69214 60.3577 8.69214 79.9519C8.69214 99.5512 14.37 116.279 25.7256 130.135C37.0812 143.987 50.788 150.912 66.8461 150.912C82.9082 150.912 96.6171 143.987 107.973 130.135C114.228 122.498 118.76 113.991 121.569 104.615C123.856 96.9729 125 88.7518 125 79.9519C125 73.2017 124.327 66.7897 122.979 60.716C122.827 60.0294 122.667 59.3479 122.499 58.6714C121.994 56.6719 121.417 54.7099 120.768 52.7856Z" fill="black" fill-opacity="0.098039"/>
<path d="M62.0171 147.913V150.43L64.5344 150.413C81.2762 150.297 95.5334 142.961 107.207 128.721L107.208 128.72C118.811 114.557 124.654 97.5102 124.801 77.7154L124.82 75.1968H122.301H64.5171H62.0171V77.6968V147.913Z" fill="#2B9F65" stroke="#AF2EFA" stroke-width="5"/>
<path d="M67.0174 77.4038V74.9038H64.5174H64.271H6H3.48887L3.50002 77.4149C3.58857 97.3413 9.43032 114.489 21.0937 128.721L21.0939 128.721C32.8624 143.076 47.2482 150.413 64.1478 150.413H64.148H64.1483H64.1485H64.1488H64.149H64.1492H64.1495H64.1497H64.15H64.1502H64.1504H64.1507H64.1509H64.1512H64.1514H64.1516H64.1519H64.1521H64.1524H64.1526H64.1528H64.1531H64.1533H64.1536H64.1538H64.154H64.1543H64.1545H64.1548H64.155H64.1553H64.1555H64.1557H64.156H64.1562H64.1565H64.1567H64.1569H64.1572H64.1574H64.1577H64.1579H64.1581H64.1584H64.1586H64.1589H64.1591H64.1593H64.1596H64.1598H64.1601H64.1603H64.1605H64.1608H64.161H64.1613H64.1615H64.1618H64.162H64.1622H64.1625H64.1627H64.163H64.1632H64.1634H64.1637H64.1639H64.1642H64.1644H64.1646H64.1649H64.1651H64.1654H64.1656H64.1658H64.1661H64.1663H64.1666H64.1668H64.167H64.1673H64.1675H64.1678H64.168H64.1682H64.1685H64.1687H64.169H64.1692H64.1694H64.1697H64.1699H64.1702H64.1704H64.1707H64.1709H64.1711H64.1714H64.1716H64.1719H64.1721H64.1723H64.1726H64.1728H64.1731H64.1733H64.1735H64.1738H64.174H64.1743H64.1745H64.1747H64.175H64.1752H64.1755H64.1757H64.1759H64.1762H64.1764H64.1767H64.1769H64.1772H64.1774H64.1776H64.1779H64.1781H64.1784H64.1786H64.1788H64.1791H64.1793H64.1796H64.1798H64.18H64.1803H64.1805H64.1808H64.181H64.1812H64.1815H64.1817H64.182H64.1822H64.1824H64.1827H64.1829H64.1832H64.1834H64.1836H64.1839H64.1841H64.1844H64.1846H64.1849H64.1851H64.1853H64.1856H64.1858H64.1861H64.1863H64.1865H64.1868H64.187H64.1873H64.1875H64.1877H64.188H64.1882H64.1885H64.1887H64.1889H64.1892H64.1894H64.1897H64.1899H64.1901H64.1904H64.1906H64.1909H64.1911H64.1913H64.1916H64.1918H64.1921H64.1923H64.1926H64.1928H64.193H64.1933H64.1935H64.1938H64.194H64.1942H64.1945H64.1947H64.195H64.1952H64.1954H64.1957H64.1959H64.1962H64.1964H64.1966H64.1969H64.1971H64.1974H64.1976H64.1978H64.1981H64.1983H64.1986H64.1988H64.199H64.1993H64.1995H64.1998H64.2H64.2003H64.2005H64.2007H64.201H64.2012H64.2015H64.2017H64.2019H64.2022H64.2024H64.2027H64.2029H64.2031H64.2034H64.2036H64.2039H64.2041H64.2043H64.2046H64.2048H64.2051H64.2053H64.2055H64.2058H64.206H64.2063H64.2065H64.2067H64.207H64.2072H64.2075H64.2077H64.208H64.2082H64.2084H64.2087H64.2089H64.2092H64.2094H64.2096H64.2099H64.2101H64.2104H64.2106H64.2108H64.2111H64.2113H64.2116H64.2118H64.212H64.2123H64.2125H64.2128H64.213H64.2132H64.2135H64.2137H64.214H64.2142H64.2145H64.2147H64.2149H64.2152H64.2154H64.2157H64.2159H64.2161H64.2164H64.2166H64.2169H64.2171H64.2173H64.2176H64.2178H64.2181H64.2183H64.2185H64.2188H64.219H64.2193H64.2195H64.2197H64.22H64.2202H64.2205H64.2207H64.2209H64.2212H64.2214H64.2217H64.2219H64.2221H64.2224H64.2226H64.2229H64.2231H64.2234H64.2236H64.2238H64.2241H64.2243H64.2246H64.2248H64.225H64.2253H64.2255H64.2258H64.226H64.2262H64.2265H64.2267H64.227H64.2272H64.2274H64.2277H64.2279H64.2282H64.2284H64.2286H64.2289H64.2291H64.2294H64.2296H64.2299H64.2301H64.2303H64.2306H64.2308H64.2311H64.2313H64.2315H64.2318H64.232H64.2323H64.2325H64.2327H64.233H64.2332H64.2335H64.2337H64.2339H64.2342H64.2344H64.2347H64.2349H64.2351H64.2354H64.2356H64.2359H64.2361H64.2363H64.2366H64.2368H64.2371H64.2373H64.2376H64.2378H64.238H64.2383H64.2385H64.2388H64.239H64.2392H64.2395H64.2397H64.24H64.2402H64.2404H64.2407H64.2409H64.2412H64.2414H64.2416H64.2419H64.2421H64.2424H64.2426H64.2428H64.2431H64.2433H64.2436H64.2438H64.244H64.2443H64.2445H64.2448H64.245H64.2453H64.2455H64.2457H64.246H64.2462H64.2465H64.2467H64.2469H64.2472H64.2474H64.2477H64.2479H64.2481H64.2484H64.2486H64.2489H64.2491H64.2493H64.2496H64.2498H64.2501H64.2503H64.2505H64.2508H64.251H64.2513H64.2515H64.2517H64.252H64.2522H64.2525H64.2527H64.253H64.2532H64.2534H64.2537H64.2539H64.2542H64.2544H64.2546H64.2549H64.2551H64.2554H64.2556H64.2558H64.2561H64.2563H64.2566H64.2568H64.257H64.2573H64.2575H64.2578H64.258H64.2582H64.2585H64.2587H64.259H64.2592H64.2594H64.2597H64.2599H64.2602H64.2604H64.2607H64.2609H64.2611H64.2614H64.2616H64.2619H64.2621H64.2623H64.2626H64.2628H64.2631H64.2633H64.2635H64.2638H64.264H64.2643H64.2645H64.2647H64.265H64.2652H64.2655H64.2657H64.2659H64.2662H64.2664H64.2667H64.2669H64.2672H64.2674H64.2676H64.2679H64.2681H64.2684H64.2686H64.2688H64.2691H64.2693H64.2696H64.2698H64.27H64.2703H64.2705H64.2708H64.271H64.2715H64.272H64.2724H64.2729H64.2734H64.2739H64.2744H64.2748H64.2753H64.2758H64.2763H64.2768H64.2773H64.2777H64.2782H64.2787H64.2792H64.2797H64.2801H64.2806H64.2811H64.2816H64.2821H64.2826H64.283H64.2835H64.284H64.2845H64.285H64.2854H64.2859H64.2864H64.2869H64.2874H64.2878H64.2883H64.2888H64.2893H64.2898H64.2903H64.2907H64.2912H64.2917H64.2922H64.2927H64.2931H64.2936H64.2941H64.2946H64.2951H64.2955H64.296H64.2965H64.297H64.2975H64.298H64.2984H64.2989H64.2994H64.2999H64.3004H64.3008H64.3013H64.3018H64.3023H64.3028H64.3032H64.3037H64.3042H64.3047H64.3052H64.3057H64.3061H64.3066H64.3071H64.3076H64.3081H64.3085H64.309H64.3095H64.31H64.3105H64.3109H64.3114H64.3119H64.3124H64.3129H64.3134H64.3138H64.3143H64.3148H64.3153H64.3158H64.3162H64.3167H64.3172H64.3177H64.3182H64.3186H64.3191H64.3196H64.3201H64.3206H64.3211H64.3215H64.322H64.3225H64.323H64.3235H64.3239H64.3244H64.3249H64.3254H64.3259H64.3263H64.3268H64.3273H64.3278H64.3283H64.3288H64.3292H64.3297H64.3302H64.3307H64.3312H64.3316H64.3321H64.3326H64.3331H64.3336H64.334H64.3345H64.335H64.3355H64.336H64.3365H64.3369H64.3374H64.3379H64.3384H64.3389H64.3393H64.3398H64.3403H64.3408H64.3413H64.3417H64.3422H64.3427H64.3432H64.3437H64.3442H64.3446H64.3451H64.3456H64.3461H64.3466H64.347H64.3475H64.348H64.3485H64.349H64.3494H64.3499H64.3504H64.3509H64.3514H64.3519H64.3523H64.3528H64.3533H64.3538H64.3543H64.3547H64.3552H64.3557H64.3562H64.3567H64.3571H64.3576H64.3581H64.3586H64.3591H64.3596H64.36H64.3605H64.361H64.3615H64.362H64.3624H64.3629H64.3634H64.3639H64.3644H64.3648H64.3653H64.3658H64.3663H64.3668H64.3673H64.3677H64.3682H64.3687H64.3692H64.3697H64.3701H64.3706H64.3711H64.3716H64.3721H64.3726H64.373H64.3735H64.374H64.3745H64.375H64.3754H64.3759H64.3764H64.3769H64.3774H64.3778H64.3783H64.3788H64.3793H64.3798H64.3802H64.3807H64.3812H64.3817H64.3822H64.3827H64.3831H64.3836H64.3841H64.3846H64.3851H64.3855H64.386H64.3865H64.387H64.3875H64.388H64.3884H64.3889H64.3894H64.3899H64.3904H64.3908H64.3913H64.3918H64.3923H64.3928H64.3932H64.3937H64.3942H64.3947H64.3952H64.3957H64.3961H64.3966H64.3971H64.3976H64.3981H64.3985H64.399H64.3995H64.4H64.4005H64.4009H64.4014H64.4019H64.4024H64.4029H64.4034H64.4038H64.4043H64.4048H64.4053H64.4058H64.4062H64.4067H64.4072H64.4077H64.4082H64.4086H64.4091H64.4096H64.4101H64.4106H64.4111H64.4115H64.412H64.4125H64.413H64.4135H64.4139H64.4144H64.4149H64.4154H64.4159H64.4163H64.4168H64.4173H64.4178H64.4183H64.4188H64.4192H64.4197H64.4202H64.4207H64.4212H64.4216H64.4221H64.4226H64.4231H64.4236H64.424H64.4245H64.425H64.4255H64.426H64.4265H64.4269H64.4274H64.4279H64.4284H64.4289H64.4293H64.4298H64.4303H64.4308H64.4313H64.4317H64.4322H64.4327H64.4332H64.4337H64.4342H64.4346H64.4351H64.4356H64.4361H64.4366H64.437H64.4375H64.438H64.4385H64.439H64.4394H64.4399H64.4404H64.4409H64.4414H64.4419H64.4423H64.4428H64.4433H64.4438H64.4443H64.4447H64.4452H64.4457H64.4462H64.4467H64.4471H64.4476H64.4481H64.4486H64.4491H64.4496H64.45H64.4505H64.451H64.4515H64.452H64.4524H64.4529H64.4534H64.4539H64.4544H64.4548H64.4553H64.4558H64.4563H64.4568H64.4573H64.4577H64.4582H64.4587H64.4592H64.4597H64.4601H64.4606H64.4611H64.4616H64.4621H64.4625H64.463H64.4635H64.464H64.4645H64.465H64.4654H64.4659H64.4664H64.4669H64.4674H64.4678H64.4683H64.4688H64.4693H64.4698H64.4702H64.4707H64.4712H64.4717H64.4722H64.4727H64.4731H64.4736H64.4741H64.4746H64.4751H64.4755H64.476H64.4765H64.477H64.4775H64.478H64.4784H64.4789H64.4794H64.4799H64.4804H64.4808H64.4813H64.4818H64.4823H64.4828H64.4832H64.4837H64.4842H64.4847H64.4852H64.4856H64.4861H64.4866H64.4871H64.4876H64.4881H64.4885H64.489H64.4895H64.49H64.4905H64.4909H64.4914H64.4919H64.4924H64.4929H64.4934H64.4938H64.4943H64.4948H64.4953H64.4958H64.4962H64.4967H64.4972H64.4977H64.4982H64.4986H64.4991H64.4996H64.5001H64.5006H64.5011H64.5015H64.502H64.5025H64.503H64.5035H64.5039H64.5044H64.5049H64.5054H64.5059H64.5063H64.5068H64.5073H64.5078H64.5083H64.5088H64.5092H64.5097H64.5102H64.5107H64.5112H64.5116H64.5121H64.5126H64.5131H64.5136H64.514H64.5145H64.515H64.5155H64.516H64.5165H64.5169H64.5174H67.0174V147.913V77.697V77.4038Z" fill="#EEB631" stroke="#AF2EFA" stroke-width="5"/>
<path d="M66.771 6V3.5H64.271H64.2708H64.2705H64.2703H64.27H64.2698H64.2696H64.2693H64.2691H64.2688H64.2686H64.2684H64.2681H64.2679H64.2676H64.2674H64.2672H64.2669H64.2667H64.2664H64.2662H64.2659H64.2657H64.2655H64.2652H64.265H64.2647H64.2645H64.2643H64.264H64.2638H64.2635H64.2633H64.2631H64.2628H64.2626H64.2623H64.2621H64.2619H64.2616H64.2614H64.2611H64.2609H64.2607H64.2604H64.2602H64.2599H64.2597H64.2595H64.2592H64.259H64.2587H64.2585H64.2583H64.258H64.2578H64.2575H64.2573H64.257H64.2568H64.2566H64.2563H64.2561H64.2558H64.2556H64.2554H64.2551H64.2549H64.2546H64.2544H64.2542H64.2539H64.2537H64.2534H64.2532H64.253H64.2527H64.2525H64.2522H64.252H64.2518H64.2515H64.2513H64.251H64.2508H64.2505H64.2503H64.2501H64.2498H64.2496H64.2493H64.2491H64.2489H64.2486H64.2484H64.2481H64.2479H64.2477H64.2474H64.2472H64.2469H64.2467H64.2465H64.2462H64.246H64.2457H64.2455H64.2453H64.245H64.2448H64.2445H64.2443H64.2441H64.2438H64.2436H64.2433H64.2431H64.2428H64.2426H64.2424H64.2421H64.2419H64.2416H64.2414H64.2412H64.2409H64.2407H64.2404H64.2402H64.24H64.2397H64.2395H64.2392H64.239H64.2388H64.2385H64.2383H64.238H64.2378H64.2376H64.2373H64.2371H64.2368H64.2366H64.2364H64.2361H64.2359H64.2356H64.2354H64.2351H64.2349H64.2347H64.2344H64.2342H64.2339H64.2337H64.2335H64.2332H64.233H64.2327H64.2325H64.2323H64.232H64.2318H64.2315H64.2313H64.2311H64.2308H64.2306H64.2303H64.2301H64.2299H64.2296H64.2294H64.2291H64.2289H64.2286H64.2284H64.2282H64.2279H64.2277H64.2274H64.2272H64.227H64.2267H64.2265H64.2262H64.226H64.2258H64.2255H64.2253H64.225H64.2248H64.2246H64.2243H64.2241H64.2238H64.2236H64.2234H64.2231H64.2229H64.2226H64.2224H64.2222H64.2219H64.2217H64.2214H64.2212H64.221H64.2207H64.2205H64.2202H64.22H64.2197H64.2195H64.2193H64.219H64.2188H64.2185H64.2183H64.2181H64.2178H64.2176H64.2173H64.2171H64.2169H64.2166H64.2164H64.2161H64.2159H64.2157H64.2154H64.2152H64.2149H64.2147H64.2145H64.2142H64.214H64.2137H64.2135H64.2132H64.213H64.2128H64.2125H64.2123H64.212H64.2118H64.2116H64.2113H64.2111H64.2108H64.2106H64.2104H64.2101H64.2099H64.2096H64.2094H64.2092H64.2089H64.2087H64.2084H64.2082H64.208H64.2077H64.2075H64.2072H64.207H64.2068H64.2065H64.2063H64.206H64.2058H64.2056H64.2053H64.2051H64.2048H64.2046H64.2043H64.2041H64.2039H64.2036H64.2034H64.2031H64.2029H64.2027H64.2024H64.2022H64.2019H64.2017H64.2015H64.2012H64.201H64.2007H64.2005H64.2003H64.2H64.1998H64.1995H64.1993H64.1991H64.1988H64.1986H64.1983H64.1981H64.1978H64.1976H64.1974H64.1971H64.1969H64.1966H64.1964H64.1962H64.1959H64.1957H64.1954H64.1952H64.195H64.1947H64.1945H64.1942H64.194H64.1938H64.1935H64.1933H64.193H64.1928H64.1926H64.1923H64.1921H64.1918H64.1916H64.1914H64.1911H64.1909H64.1906H64.1904H64.1901H64.1899H64.1897H64.1894H64.1892H64.1889H64.1887H64.1885H64.1882H64.188H64.1877H64.1875H64.1873H64.187H64.1868H64.1865H64.1863H64.1861H64.1858H64.1856H64.1853H64.1851H64.1849H64.1846H64.1844H64.1841H64.1839H64.1837H64.1834H64.1832H64.1829H64.1827H64.1824H64.1822H64.182H64.1817H64.1815H64.1812H64.181H64.1808H64.1805H64.1803H64.18H64.1798H64.1796H64.1793H64.1791H64.1788H64.1786H64.1784H64.1781H64.1779H64.1776H64.1774H64.1772H64.1769H64.1767H64.1764H64.1762H64.1759H64.1757H64.1755H64.1752H64.175H64.1747H64.1745H64.1743H64.174H64.1738H64.1735H64.1733H64.1731H64.1728H64.1726H64.1723H64.1721H64.1719H64.1716H64.1714H64.1711H64.1709H64.1707H64.1704H64.1702H64.1699H64.1697H64.1695H64.1692H64.169H64.1687H64.1685H64.1683H64.168H64.1678H64.1675H64.1673H64.167H64.1668H64.1666H64.1663H64.1661H64.1658H64.1656H64.1654H64.1651H64.1649H64.1646H64.1644H64.1642H64.1639H64.1637H64.1634H64.1632H64.163H64.1627H64.1625H64.1622H64.162H64.1618H64.1615H64.1613H64.161H64.1608H64.1605H64.1603H64.1601H64.1598H64.1596H64.1593H64.1591H64.1589H64.1586H64.1584H64.1581H64.1579H64.1577H64.1574H64.1572H64.1569H64.1567H64.1565H64.1562H64.156H64.1557H64.1555H64.1553H64.155H64.1548H64.1545H64.1543H64.1541H64.1538H64.1536H64.1533H64.1531H64.1529H64.1526H64.1524H64.1521H64.1519H64.1516H64.1514H64.1512H64.1509H64.1507H64.1504H64.1502H64.15H64.1497H64.1495H64.1492H64.149H64.1488H64.1485H64.1483H64.148H64.1478C47.2482 3.5 32.8624 10.837 21.0939 25.1919L21.0934 25.1926C9.34067 39.5386 3.5 56.8388 3.5 76.9527V76.9536V76.9545V76.9554V76.9562V76.9571V76.958V76.9589V76.9598V76.9606V76.9615V76.9624V76.9633V76.9642V76.965V76.9659V76.9668V76.9677V76.9686V76.9694V76.9703V76.9712V76.9721V76.973V76.9738V76.9747V76.9756V76.9765V76.9774V76.9783V76.9791V76.98V76.9809V76.9818V76.9827V76.9835V76.9844V76.9853V76.9862V76.9871V76.9879V76.9888V76.9897V76.9906V76.9915V76.9923V76.9932V76.9941V76.995V76.9959V76.9967V76.9976V76.9985V76.9994V77.0003V77.0012V77.002V77.0029V77.0038V77.0047V77.0056V77.0064V77.0073V77.0082V77.0091V77.01V77.0108V77.0117V77.0126V77.0135V77.0144V77.0153V77.0161V77.017V77.0179V77.0188V77.0197V77.0205V77.0214V77.0223V77.0232V77.0241V77.0249V77.0258V77.0267V77.0276V77.0285V77.0293V77.0302V77.0311V77.032V77.0329V77.0338V77.0346V77.0355V77.0364V77.0373V77.0382V77.039V77.0399V77.0408V77.0417V77.0426V77.0434V77.0443V77.0452V77.0461V77.047V77.0478V77.0487V77.0496V77.0505V77.0514V77.0522V77.0531V77.054V77.0549V77.0558V77.0567V77.0575V77.0584V77.0593V77.0602V77.0611V77.0619V77.0628V77.0637V77.0646V77.0655V77.0663V77.0672V77.0681V77.069V77.0699V77.0707V77.0716V77.0725V77.0734V77.0743V77.0751V77.076V77.0769V77.0778V77.0787V77.0796V77.0804V77.0813V77.0822V77.0831V77.084V77.0848V77.0857V77.0866V77.0875V77.0884V77.0892V77.0901V77.091V77.0919V77.0928V77.0937V77.0945V77.0954V77.0963V77.0972V77.0981V77.0989V77.0998V77.1007V77.1016V77.1025V77.1033V77.1042V77.1051V77.106V77.1069V77.1077V77.1086V77.1095V77.1104V77.1113V77.1122V77.113V77.1139V77.1148V77.1157V77.1166V77.1174V77.1183V77.1192V77.1201V77.121V77.1218V77.1227V77.1236V77.1245V77.1254V77.1262V77.1271V77.128V77.1289V77.1298V77.1306V77.1315V77.1324V77.1333V77.1342V77.1351V77.1359V77.1368V77.1377V77.1386V77.1395V77.1403V77.1412V77.1421V77.143V77.1439V77.1447V77.1456V77.1465V77.1474V77.1483V77.1491V77.15V77.1509V77.1518V77.1527V77.1535V77.1544V77.1553V77.1562V77.1571V77.158V77.1588V77.1597V77.1606V77.1615V77.1624V77.1632V77.1641V77.165V77.1659V77.1668V77.1676V77.1685V77.1694V77.1703V77.1712V77.1721V77.1729V77.1738V77.1747V77.1756V77.1765V77.1773V77.1782V77.1791V77.18V77.1809V77.1817V77.1826V77.1835V77.1844V77.1853V77.1861V77.187V77.1879V77.1888V77.1897V77.1906V77.1914V77.1923V77.1932V77.1941V77.195V77.1958V77.1967V77.1976V77.1985V77.1994V77.2002V77.2011V77.202V77.2029V77.2038V77.2046V77.2055V77.2064V77.2073V77.2082V77.209V77.2099V77.2108V77.2117V77.2126V77.2135V77.2143V77.2152V77.2161V77.217V77.2179V77.2187V77.2196V77.2205V77.2214V77.2223V77.2231V77.224V77.2249V77.2258V77.2267V77.2275V77.2284V77.2293V77.2302V77.2311V77.2319V77.2328V77.2337V77.2346V77.2355V77.2364V77.2372V77.2381V77.239V77.2399V77.2408V77.2416V77.2425V77.2434V77.2443V77.2452V77.246V77.2469V77.2478V77.2487V77.2496V77.2505V77.2513V77.2522V77.2531V77.254V77.2549V77.2557V77.2566V77.2575V77.2584V77.2593V77.2601V77.261V77.2619V77.2628V77.2637V77.2645V77.2654V77.2663V77.2672V77.2681V77.269V77.2698V77.2707V77.2716V77.2725V77.2734V77.2742V77.2751V77.276V77.2769V77.2778V77.2786V77.2795V77.2804V77.2813V77.2822V77.283V77.2839V77.2848V77.2857V77.2866V77.2874V77.2883V77.2892V77.2901V77.291V77.2919V77.2927V77.2936V77.2945V77.2954V77.2963V77.2971V77.298V77.2989V77.2998V77.3007V77.3015V77.3024V77.3033V77.3042V77.3051V77.3059V77.3068V77.3077V77.3086V77.3095V77.3103V77.3112V77.3121V77.313V77.3139V77.3148V77.3156V77.3165V77.3174V77.3183V77.3192V77.32V77.3209V77.3218V77.3227V77.3236V77.3244V77.3253V77.3262V77.3271V77.328V77.3288V77.3297V77.3306V77.3315V77.3324V77.3333V77.3341V77.335V77.3359V77.3368V77.3377V77.3385V77.3394V77.3403V77.3412V77.3421V77.3429V77.3438V77.3447V77.3456V77.3465V77.3474V77.3482V77.3491V77.35V77.3509V77.3518V77.3526V77.3535V77.3544V77.3553V77.3562V77.357V77.3579V77.3588V77.3597V77.3606V77.3614V77.3623V77.3632V77.3641V77.365V77.3658V77.3667V77.3676V77.3685V77.3694V77.3703V77.3711V77.372V77.3729V77.3738V77.3747V77.3755V77.3764V77.3773V77.3782V77.3791V77.3799V77.3808V77.3817V77.3826V77.3835V77.3843V77.3852V77.3861V77.387V77.3879V77.3887V77.3896V77.3905V77.3914V77.3923V77.3932V77.394V77.3949V77.3958V77.3967V77.3976V77.3984V77.3993V77.4002V77.4011V77.402V77.4028V77.4037V79.9037H6H64.271H66.771V77.4037V6Z" fill="#3872D1" stroke="#AF2EFA" stroke-width="5"/>
<path d="M122.302 80.1969H124.802V77.6969V77.6955V77.694V77.6926V77.6911V77.6897V77.6883V77.6868V77.6854V77.684V77.6825V77.6811V77.6796V77.6782V77.6768V77.6753V77.6739V77.6724V77.671V77.6696V77.6681V77.6667V77.6652V77.6638V77.6624V77.6609V77.6595V77.658V77.6566V77.6552V77.6537V77.6523V77.6508V77.6494V77.6479V77.6465V77.6451V77.6436V77.6422V77.6407V77.6393V77.6379V77.6364V77.635V77.6335V77.6321V77.6307V77.6292V77.6278V77.6263V77.6249V77.6235V77.622V77.6206V77.6191V77.6177V77.6162V77.6148V77.6134V77.6119V77.6105V77.609V77.6076V77.6061V77.6047V77.6033V77.6018V77.6004V77.5989V77.5975V77.596V77.5946V77.5932V77.5917V77.5903V77.5888V77.5874V77.5859V77.5845V77.5831V77.5816V77.5802V77.5787V77.5773V77.5758V77.5744V77.573V77.5715V77.5701V77.5686V77.5672V77.5657V77.5643V77.5629V77.5614V77.56V77.5585V77.5571V77.5556V77.5542V77.5527V77.5513V77.5499V77.5484V77.547V77.5455V77.5441V77.5426V77.5412V77.5397V77.5383V77.5368V77.5354V77.534V77.5325V77.5311V77.5296V77.5282V77.5267V77.5253V77.5238V77.5224V77.5209V77.5195V77.5181V77.5166V77.5152V77.5137V77.5123V77.5108V77.5094V77.5079V77.5065V77.505V77.5036V77.5021V77.5007V77.4993V77.4978V77.4964V77.4949V77.4935V77.492V77.4906V77.4891V77.4877V77.4862V77.4848V77.4833V77.4819V77.4804V77.479V77.4775V77.4761V77.4746V77.4732V77.4718V77.4703V77.4689V77.4674V77.466V77.4645V77.4631V77.4616V77.4602V77.4587V77.4573V77.4558V77.4544V77.4529V77.4515V77.45V77.4486V77.4471V77.4457V77.4442V77.4428V77.4413V77.4399V77.4384V77.437V77.4355V77.4341V77.4326V77.4312V77.4297V77.4283V77.4268V77.4254V77.4239V77.4225V77.421V77.4196V77.4181V77.4167V77.4152V77.4138V77.4123V77.4109V77.4094V77.408V77.4065V77.4051V77.4036V77.4022V77.4007V77.3993V77.3978V77.3964V77.3949V77.3935V77.392V77.3906V77.3891V77.3877V77.3862V77.3848V77.3833V77.3819V77.3804V77.379V77.3775V77.3761V77.3746V77.3732V77.3717V77.3703V77.3688V77.3674V77.3659V77.3645V77.363V77.3616V77.3601V77.3587V77.3572V77.3558V77.3543V77.3528V77.3514V77.3499V77.3485V77.347V77.3456V77.3441V77.3427V77.3412V77.3398V77.3383V77.3369V77.3354V77.334V77.3325V77.3311V77.3296V77.3281V77.3267V77.3252V77.3238V77.3223V77.3209V77.3194V77.318V77.3165V77.3151V77.3136V77.3122V77.3107V77.3092V77.3078V77.3063V77.3049V77.3034V77.302V77.3005V77.2991V77.2976V77.2962V77.2947V77.2932V77.2918V77.2903V77.2889V77.2874V77.286V77.2845V77.2831V77.2816V77.2802V77.2787V77.2772V77.2758V77.2743V77.2729V77.2714V77.27V77.2685V77.2671V77.2656V77.2641V77.2627V77.2612V77.2598V77.2583V77.2569V77.2554V77.2539V77.2525V77.251V77.2496V77.2481V77.2467V77.2452V77.2438V77.2423V77.2408V77.2394V77.2379V77.2365V77.235V77.2336V77.2321V77.2306V77.2292V77.2277V77.2263V77.2248V77.2234V77.2219V77.2204V77.219V77.2175V77.2161V77.2146V77.2131V77.2117V77.2102V77.2088V77.2073V77.2059V77.2044V77.2029V77.2015V77.2V77.1986V77.1971V77.1956V77.1942V77.1927V77.1913V77.1898V77.1884V77.1869V77.1854V77.184V77.1825V77.1811V77.1796V77.1781V77.1767V77.1752V77.1738V77.1723V77.1708V77.1694V77.1679V77.1665V77.165V77.1635V77.1621V77.1606V77.1592V77.1577V77.1562V77.1548V77.1533V77.1519V77.1504V77.1489V77.1475V77.146V77.1446V77.1431V77.1416V77.1402V77.1387V77.1373V77.1358V77.1343V77.1329V77.1314V77.13V77.1285V77.127V77.1256V77.1241V77.1226V77.1212V77.1197V77.1183V77.1168V77.1153V77.1139V77.1124V77.1109V77.1095V77.108V77.1066V77.1051V77.1036V77.1022V77.1007V77.0993V77.0978V77.0963V77.0949V77.0934V77.0919V77.0905V77.089V77.0875V77.0861V77.0846V77.0832V77.0817V77.0802V77.0788V77.0773V77.0758V77.0744V77.0729V77.0715V77.07V77.0685V77.0671V77.0656V77.0641V77.0627V77.0612V77.0597V77.0583V77.0568V77.0554V77.0539V77.0524V77.051V77.0495V77.048V77.0466V77.0451V77.0436V77.0422V77.0407V77.0392V77.0378V77.0363V77.0349V77.0334V77.0319V77.0304V77.029V77.0275V77.0261V77.0246V77.0231V77.0217V77.0202V77.0187V77.0173V77.0158V77.0143V77.0129V77.0114V77.0099V77.0085V77.007V77.0055V77.0041V77.0026V77.0011V76.9997V76.9982V76.9967V76.9953V76.9938V76.9923V76.9909V76.9894V76.9879V76.9865V76.985V76.9835V76.9821V76.9806V76.9791V76.9777V76.9762V76.9747V76.9733V76.9718V76.9703V76.9689V76.9674V76.9659V76.9645V76.963V76.9615V76.9601V76.9586V76.9571V76.9557V76.9542V76.9527C124.802 56.8388 118.961 39.5386 107.208 25.1926L107.208 25.1919C95.4733 10.8785 81.1291 3.5422 64.2773 3.50001L61.771 3.49373V6V77.4037V79.9037H62.0174V80.1969H64.5174H122.302Z" fill="#D13E36" stroke="#AF2EFA" stroke-width="5"/>
<path d="M107.56 79.4783C107.589 78.6438 107.603 77.8019 107.603 76.9526C107.603 62.3897 103.385 49.9616 94.9496 39.6684C86.5099 29.3751 76.3227 24.2285 64.388 24.2285C52.4533 24.2285 42.2681 29.3751 33.8325 39.6684C25.3969 49.9616 21.1791 62.3897 21.1791 76.9526C21.1791 91.5155 25.3969 103.946 33.8325 114.244C42.2681 124.538 52.4533 129.684 64.388 129.684C68.2578 129.684 71.9437 129.143 75.4458 128.06C82.7452 125.805 89.2464 121.2 94.9496 114.244C102.893 104.547 107.097 92.9579 107.56 79.4783Z" fill="white"/>
<path d="M94.9499 114.244C101.921 105.733 106.012 95.7659 107.221 84.3417L83.4731 55.3638L78.8035 58.8667L58.6098 58.1826L49.7265 59.8589V90.3327L44.2438 100.556C42.5509 116.805 50.4629 126.459 67.9797 129.519C70.5563 129.289 73.0451 128.803 75.4461 128.06C82.7455 125.805 89.2467 121.2 94.9499 114.244Z" fill="black" fill-opacity="0.098039"/>
<path d="M108.712 50.3127L108.786 50.4405L109.531 51.3351L108.712 50.3127Z" fill="url(#paint0_radial_91_407)"/>
<path d="M108.786 50.4405L108.712 50.3127V50.3503L108.786 50.4405Z" fill="#4285F4"/>
<path d="M91.7217 117.845V86.8374L74.2693 65.4065C73.7395 65.0958 73.2549 64.6649 72.8155 64.1136C71.8134 62.941 71.3123 61.4852 71.3123 59.7463V59.3178C71.3123 59.2727 71.3123 59.2251 71.3123 59.175V40.593H42.4571C41.032 40.593 39.839 41.2019 38.8779 42.4196C37.9087 43.6023 37.4056 45.0381 37.3687 46.7269V118.161C45.0691 125.843 54.0756 129.684 64.3881 129.684C64.4332 129.684 64.4764 129.684 64.5174 129.684C68.341 129.674 71.9838 129.133 75.4459 128.061C81.401 126.221 86.8262 122.816 91.7217 117.845Z" fill="#12B965"/>
<path d="M91.7214 86.8379V65.9557H76.4005C75.8215 65.9557 75.2835 65.8555 74.7865 65.655C74.6099 65.5849 74.4374 65.5022 74.269 65.407L91.7214 86.8379Z" fill="#2B9F65"/>
<path d="M91.7216 65.9555V65.4594L71.3123 40.4805V40.5932V59.1752C71.3123 59.2253 71.3123 59.2729 71.3123 59.318V59.7465C71.3123 61.4854 71.8133 62.9412 72.8154 64.1138C73.2548 64.6651 73.7394 65.096 74.2692 65.4067C74.4376 65.502 74.6101 65.5846 74.7867 65.6548C75.2836 65.8553 75.8217 65.9555 76.4007 65.9555H91.7216ZM72.877 63.7004C72.9509 63.7856 73.0269 63.8733 73.1049 63.9635C73.0515 63.9084 73.0002 63.8557 72.9509 63.8056L72.877 63.7004Z" fill="#16EC80"/>
<path d="M50.7366 88.0852V118.236H77.9839V88.0852H50.7366ZM54.1371 97.4288V92.2271H62.6631V97.4288H54.1371ZM54.1371 114.094V108.892H62.6631V114.094H54.1371ZM54.1371 105.728V100.526H62.6631V105.728H54.1371ZM74.5834 92.2271V97.4288H66.0574V92.2271H74.5834ZM66.0574 114.094V108.892H74.5834V114.094H66.0574ZM74.5834 105.728H66.0574V100.526H74.5834V105.728Z" fill="#F1F1F1"/>
<defs>
<radialGradient id="paint0_radial_91_407" cx="0" cy="0" r="1" gradientUnits="userSpaceOnUse" gradientTransform="translate(89.9658 51.7861) scale(50.5199 61.645)">
<stop stop-color="white" stop-opacity="0.098039"/>
<stop offset="1" stop-color="white" stop-opacity="0"/>
</radialGradient>
</defs>
</svg>
