<svg width="128" height="154" viewBox="0 0 128 154" fill="none" xmlns="http://www.w3.org/2000/svg">
<mask id="path-1-outside-1_91_410" maskUnits="userSpaceOnUse" x="0" y="0" width="128" height="154" fill="black">
<rect fill="white" width="128" height="154"/>
<path d="M64 5C31.4173 5 5 37.2347 5 76.9926C5 116.75 31.4173 148.985 64 148.985C96.5828 148.985 123 116.75 123 76.9926C123 37.2347 96.5828 5 64 5ZM39.2298 51.0753C42.937 51.0753 45.8034 54.3689 46.1378 58.2745C46.477 61.7722 45.297 64.8558 42.0963 66.7096C40.4098 67.7355 39.7363 67.7415 39.397 67.1236C39.2298 66.7096 39.397 66.3017 39.7363 65.8877C42.7698 62.804 42.7698 60.3323 42.4306 56.8407C42.2634 54.5729 40.9163 53.133 39.5642 53.133C33.6642 53.133 25.237 69.1754 26.417 80.9042C26.9234 85.4277 29.1163 90.7792 33.8363 90.7792C35.3506 90.7792 37.0321 90.1612 38.5563 89.3393C41.0146 87.7555 42.4847 86.5196 43.9498 84.5398C43.5909 79.2304 47.4112 72.2651 53.0506 72.2651C55.5827 72.2651 57.6034 73.4949 57.7706 75.7627C58.1049 78.8464 55.917 79.2544 55.2434 79.2544C54.5698 79.2544 53.3849 79.0504 53.3849 78.2345C53.2178 77.4065 54.9042 77.8145 54.737 75.9667C54.5649 74.7308 53.557 74.3229 52.5442 74.3229C49.0042 74.3229 46.9834 80.2863 47.4849 83.9879C47.657 85.6377 48.3306 87.2815 49.6827 87.2815C50.6906 87.2815 52.2098 85.4217 52.7162 82.752C53.0506 80.9042 54.4027 79.6683 55.5827 79.6683C56.0842 79.6683 56.4185 79.8723 56.5906 80.6942V81.5221C56.4234 82.344 55.917 84.8098 56.0891 85.4277C56.0891 85.8417 56.2563 86.4536 56.9249 86.4536C57.3773 86.4536 59.0686 85.3737 60.7452 83.6999C61.3204 80.1603 61.9891 75.9127 61.9891 75.5587C62.1562 74.1189 62.6627 72.679 65.0227 72.679C65.5291 72.679 65.8634 72.883 66.0306 73.7049V74.5328L65.3619 78.2345C67.5498 74.7368 70.7555 72.2711 72.7763 72.2711C73.6219 72.2711 74.2955 72.883 74.2955 73.9149C74.2955 74.5328 74.2955 75.5587 73.9563 76.5906C73.2827 78.8524 72.437 82.35 71.9306 85.4337C71.9306 86.2556 72.1027 87.0775 72.9483 87.0775C73.7891 87.0775 76.3163 85.8417 78.337 82.554L78.3714 82.53C78.3616 82.1221 78.337 81.7261 78.337 81.3181C78.337 78.8524 78.5091 76.7946 78.8483 75.3548C79.1827 73.7109 80.8691 72.2711 81.8819 72.2711C82.3883 72.2711 82.8898 72.685 82.8898 73.297C82.8898 73.5069 82.8898 73.9149 82.7227 74.1189C82.0491 76.7946 81.5427 79.2604 81.5427 81.7321C81.5427 83.172 81.7098 85.2237 82.0442 86.4596C82.0442 86.6636 82.2163 86.8736 82.3883 86.8736C82.7227 86.8736 85.0827 84.2039 86.7642 80.7062C85.2498 79.4703 84.4042 77.4125 84.4042 74.9468C84.4042 70.6272 86.597 68.3655 88.6227 68.3655C90.3091 68.3655 91.6563 69.8053 91.6563 72.685C91.6563 74.5328 91.1498 76.5846 90.3091 78.4444H90.8106C91.3454 78.4657 91.8778 78.3483 92.3728 78.1001C92.8677 77.852 93.3139 77.4786 93.6819 77.0046C93.8366 76.693 94.0668 76.4477 94.3408 76.3027C95.9878 73.7529 98.4216 71.8631 101.273 71.8631C103.633 71.8631 105.816 73.093 105.988 75.3548C106.323 78.4444 104.13 79.0624 103.456 79.0624L103.446 79.0504C102.768 79.0504 101.593 78.8404 101.593 78.0185C101.593 77.1966 103.112 77.6105 102.94 75.7627C102.773 74.5268 101.76 74.1129 100.747 74.1129C97.3743 74.1129 95.1913 79.4583 95.6928 83.7779C95.86 85.4277 96.5336 87.2755 97.8808 87.2755C98.8936 87.2755 100.413 85.4277 101.086 82.752C101.421 81.1082 102.773 79.6683 103.953 79.6683C104.459 79.6683 104.789 79.8723 104.961 80.6942C104.961 81.1082 104.961 81.9301 104.287 84.6058C103.451 86.4536 103.446 87.4855 103.614 88.3074C103.781 89.9513 104.454 91.1871 105.133 91.8051C105.3 92.009 105.467 92.417 105.467 92.417C105.467 92.831 105.3 93.2449 104.794 93.2449C104.626 93.2449 104.459 93.2449 104.287 93.0349C101.76 91.8051 100.747 89.7473 100.408 87.6895C99.4 89.1293 98.22 89.9513 96.8679 89.9513C94.68 89.9513 92.4921 87.4855 92.1479 84.3958C92.0513 83.0808 92.1768 81.7557 92.5167 80.5022C91.5186 81.2821 90.4418 81.7201 89.4536 81.7201H88.6178C86.42 85.6317 84.06 88.3074 82.3736 89.5373C81.8009 89.9093 81.168 90.1223 80.52 90.1612C80.1857 90.1612 79.6793 89.9513 79.5121 89.5373C79.045 88.6254 78.7451 87.1855 78.5632 85.5357C76.1983 88.6974 72.9336 90.3652 71.4193 90.3652C69.7328 90.3652 68.7249 89.1293 68.5578 87.0655V84.8098C69.0593 80.2863 70.4113 77.6105 70.4113 76.7886C70.4067 76.6801 70.3696 76.5774 70.3071 76.5C70.2446 76.4226 70.161 76.3758 70.0721 76.3686C68.8921 76.3686 65.0178 81.3121 64.3393 84.6058L63.8328 87.2755C63.4985 89.1293 61.9793 90.3652 60.9713 90.3652C60.4649 90.3652 60.1257 90.1552 59.9585 89.3333V88.5114L60.1847 87.1136C58.0459 88.9734 55.9072 90.1612 54.8993 90.1612C53.3849 90.1612 52.5393 89.1293 52.3721 87.6895C51.3593 89.3333 50.1842 90.1612 48.6649 90.1612C46.9343 90.1612 45.2429 88.7214 44.4268 86.6036C43.2271 88.2534 41.8553 89.9213 40.2378 91.1871C37.8778 93.0409 35.1834 94.4808 31.9778 94.4808C29.1163 94.4808 26.5842 92.627 25.237 90.9831C23.2113 88.7214 22.0363 85.2237 21.8642 81.9301C20.8563 71.8511 25.9106 58.8925 33.6642 53.133C35.5227 51.9032 37.3763 51.0753 39.2298 51.0753ZM87.2657 70.8192C86.7543 70.8192 86.42 71.8511 86.42 72.877C86.42 74.5208 87.0936 76.3747 87.9393 77.4065C88.2689 76.2842 88.4385 75.1012 88.4408 73.9089C88.4408 71.8511 87.7721 70.8192 87.2657 70.8192Z"/>
</mask>
<path d="M64 5C31.4173 5 5 37.2347 5 76.9926C5 116.75 31.4173 148.985 64 148.985C96.5828 148.985 123 116.75 123 76.9926C123 37.2347 96.5828 5 64 5ZM39.2298 51.0753C42.937 51.0753 45.8034 54.3689 46.1378 58.2745C46.477 61.7722 45.297 64.8558 42.0963 66.7096C40.4098 67.7355 39.7363 67.7415 39.397 67.1236C39.2298 66.7096 39.397 66.3017 39.7363 65.8877C42.7698 62.804 42.7698 60.3323 42.4306 56.8407C42.2634 54.5729 40.9163 53.133 39.5642 53.133C33.6642 53.133 25.237 69.1754 26.417 80.9042C26.9234 85.4277 29.1163 90.7792 33.8363 90.7792C35.3506 90.7792 37.0321 90.1612 38.5563 89.3393C41.0146 87.7555 42.4847 86.5196 43.9498 84.5398C43.5909 79.2304 47.4112 72.2651 53.0506 72.2651C55.5827 72.2651 57.6034 73.4949 57.7706 75.7627C58.1049 78.8464 55.917 79.2544 55.2434 79.2544C54.5698 79.2544 53.3849 79.0504 53.3849 78.2345C53.2178 77.4065 54.9042 77.8145 54.737 75.9667C54.5649 74.7308 53.557 74.3229 52.5442 74.3229C49.0042 74.3229 46.9834 80.2863 47.4849 83.9879C47.657 85.6377 48.3306 87.2815 49.6827 87.2815C50.6906 87.2815 52.2098 85.4217 52.7162 82.752C53.0506 80.9042 54.4027 79.6683 55.5827 79.6683C56.0842 79.6683 56.4185 79.8723 56.5906 80.6942V81.5221C56.4234 82.344 55.917 84.8098 56.0891 85.4277C56.0891 85.8417 56.2563 86.4536 56.9249 86.4536C57.3773 86.4536 59.0686 85.3737 60.7452 83.6999C61.3204 80.1603 61.9891 75.9127 61.9891 75.5587C62.1562 74.1189 62.6627 72.679 65.0227 72.679C65.5291 72.679 65.8634 72.883 66.0306 73.7049V74.5328L65.3619 78.2345C67.5498 74.7368 70.7555 72.2711 72.7763 72.2711C73.6219 72.2711 74.2955 72.883 74.2955 73.9149C74.2955 74.5328 74.2955 75.5587 73.9563 76.5906C73.2827 78.8524 72.437 82.35 71.9306 85.4337C71.9306 86.2556 72.1027 87.0775 72.9483 87.0775C73.7891 87.0775 76.3163 85.8417 78.337 82.554L78.3714 82.53C78.3616 82.1221 78.337 81.7261 78.337 81.3181C78.337 78.8524 78.5091 76.7946 78.8483 75.3548C79.1827 73.7109 80.8691 72.2711 81.8819 72.2711C82.3883 72.2711 82.8898 72.685 82.8898 73.297C82.8898 73.5069 82.8898 73.9149 82.7227 74.1189C82.0491 76.7946 81.5427 79.2604 81.5427 81.7321C81.5427 83.172 81.7098 85.2237 82.0442 86.4596C82.0442 86.6636 82.2163 86.8736 82.3883 86.8736C82.7227 86.8736 85.0827 84.2039 86.7642 80.7062C85.2498 79.4703 84.4042 77.4125 84.4042 74.9468C84.4042 70.6272 86.597 68.3655 88.6227 68.3655C90.3091 68.3655 91.6563 69.8053 91.6563 72.685C91.6563 74.5328 91.1498 76.5846 90.3091 78.4444H90.8106C91.3454 78.4657 91.8778 78.3483 92.3728 78.1001C92.8677 77.852 93.3139 77.4786 93.6819 77.0046C93.8366 76.693 94.0668 76.4477 94.3408 76.3027C95.9878 73.7529 98.4216 71.8631 101.273 71.8631C103.633 71.8631 105.816 73.093 105.988 75.3548C106.323 78.4444 104.13 79.0624 103.456 79.0624L103.446 79.0504C102.768 79.0504 101.593 78.8404 101.593 78.0185C101.593 77.1966 103.112 77.6105 102.94 75.7627C102.773 74.5268 101.76 74.1129 100.747 74.1129C97.3743 74.1129 95.1913 79.4583 95.6928 83.7779C95.86 85.4277 96.5336 87.2755 97.8808 87.2755C98.8936 87.2755 100.413 85.4277 101.086 82.752C101.421 81.1082 102.773 79.6683 103.953 79.6683C104.459 79.6683 104.789 79.8723 104.961 80.6942C104.961 81.1082 104.961 81.9301 104.287 84.6058C103.451 86.4536 103.446 87.4855 103.614 88.3074C103.781 89.9513 104.454 91.1871 105.133 91.8051C105.3 92.009 105.467 92.417 105.467 92.417C105.467 92.831 105.3 93.2449 104.794 93.2449C104.626 93.2449 104.459 93.2449 104.287 93.0349C101.76 91.8051 100.747 89.7473 100.408 87.6895C99.4 89.1293 98.22 89.9513 96.8679 89.9513C94.68 89.9513 92.4921 87.4855 92.1479 84.3958C92.0513 83.0808 92.1768 81.7557 92.5167 80.5022C91.5186 81.2821 90.4418 81.7201 89.4536 81.7201H88.6178C86.42 85.6317 84.06 88.3074 82.3736 89.5373C81.8009 89.9093 81.168 90.1223 80.52 90.1612C80.1857 90.1612 79.6793 89.9513 79.5121 89.5373C79.045 88.6254 78.7451 87.1855 78.5632 85.5357C76.1983 88.6974 72.9336 90.3652 71.4193 90.3652C69.7328 90.3652 68.7249 89.1293 68.5578 87.0655V84.8098C69.0593 80.2863 70.4113 77.6105 70.4113 76.7886C70.4067 76.6801 70.3696 76.5774 70.3071 76.5C70.2446 76.4226 70.161 76.3758 70.0721 76.3686C68.8921 76.3686 65.0178 81.3121 64.3393 84.6058L63.8328 87.2755C63.4985 89.1293 61.9793 90.3652 60.9713 90.3652C60.4649 90.3652 60.1257 90.1552 59.9585 89.3333V88.5114L60.1847 87.1136C58.0459 88.9734 55.9072 90.1612 54.8993 90.1612C53.3849 90.1612 52.5393 89.1293 52.3721 87.6895C51.3593 89.3333 50.1842 90.1612 48.6649 90.1612C46.9343 90.1612 45.2429 88.7214 44.4268 86.6036C43.2271 88.2534 41.8553 89.9213 40.2378 91.1871C37.8778 93.0409 35.1834 94.4808 31.9778 94.4808C29.1163 94.4808 26.5842 92.627 25.237 90.9831C23.2113 88.7214 22.0363 85.2237 21.8642 81.9301C20.8563 71.8511 25.9106 58.8925 33.6642 53.133C35.5227 51.9032 37.3763 51.0753 39.2298 51.0753ZM87.2657 70.8192C86.7543 70.8192 86.42 71.8511 86.42 72.877C86.42 74.5208 87.0936 76.3747 87.9393 77.4065C88.2689 76.2842 88.4385 75.1012 88.4408 73.9089C88.4408 71.8511 87.7721 70.8192 87.2657 70.8192Z" fill="#27BFCC"/>
<path d="M64 5C31.4173 5 5 37.2347 5 76.9926C5 116.75 31.4173 148.985 64 148.985C96.5828 148.985 123 116.75 123 76.9926C123 37.2347 96.5828 5 64 5ZM39.2298 51.0753C42.937 51.0753 45.8034 54.3689 46.1378 58.2745C46.477 61.7722 45.297 64.8558 42.0963 66.7096C40.4098 67.7355 39.7363 67.7415 39.397 67.1236C39.2298 66.7096 39.397 66.3017 39.7363 65.8877C42.7698 62.804 42.7698 60.3323 42.4306 56.8407C42.2634 54.5729 40.9163 53.133 39.5642 53.133C33.6642 53.133 25.237 69.1754 26.417 80.9042C26.9234 85.4277 29.1163 90.7792 33.8363 90.7792C35.3506 90.7792 37.0321 90.1612 38.5563 89.3393C41.0146 87.7555 42.4847 86.5196 43.9498 84.5398C43.5909 79.2304 47.4112 72.2651 53.0506 72.2651C55.5827 72.2651 57.6034 73.4949 57.7706 75.7627C58.1049 78.8464 55.917 79.2544 55.2434 79.2544C54.5698 79.2544 53.3849 79.0504 53.3849 78.2345C53.2178 77.4065 54.9042 77.8145 54.737 75.9667C54.5649 74.7308 53.557 74.3229 52.5442 74.3229C49.0042 74.3229 46.9834 80.2863 47.4849 83.9879C47.657 85.6377 48.3306 87.2815 49.6827 87.2815C50.6906 87.2815 52.2098 85.4217 52.7162 82.752C53.0506 80.9042 54.4027 79.6683 55.5827 79.6683C56.0842 79.6683 56.4185 79.8723 56.5906 80.6942V81.5221C56.4234 82.344 55.917 84.8098 56.0891 85.4277C56.0891 85.8417 56.2563 86.4536 56.9249 86.4536C57.3773 86.4536 59.0686 85.3737 60.7452 83.6999C61.3204 80.1603 61.9891 75.9127 61.9891 75.5587C62.1562 74.1189 62.6627 72.679 65.0227 72.679C65.5291 72.679 65.8634 72.883 66.0306 73.7049V74.5328L65.3619 78.2345C67.5498 74.7368 70.7555 72.2711 72.7763 72.2711C73.6219 72.2711 74.2955 72.883 74.2955 73.9149C74.2955 74.5328 74.2955 75.5587 73.9563 76.5906C73.2827 78.8524 72.437 82.35 71.9306 85.4337C71.9306 86.2556 72.1027 87.0775 72.9483 87.0775C73.7891 87.0775 76.3163 85.8417 78.337 82.554L78.3714 82.53C78.3616 82.1221 78.337 81.7261 78.337 81.3181C78.337 78.8524 78.5091 76.7946 78.8483 75.3548C79.1827 73.7109 80.8691 72.2711 81.8819 72.2711C82.3883 72.2711 82.8898 72.685 82.8898 73.297C82.8898 73.5069 82.8898 73.9149 82.7227 74.1189C82.0491 76.7946 81.5427 79.2604 81.5427 81.7321C81.5427 83.172 81.7098 85.2237 82.0442 86.4596C82.0442 86.6636 82.2163 86.8736 82.3883 86.8736C82.7227 86.8736 85.0827 84.2039 86.7642 80.7062C85.2498 79.4703 84.4042 77.4125 84.4042 74.9468C84.4042 70.6272 86.597 68.3655 88.6227 68.3655C90.3091 68.3655 91.6563 69.8053 91.6563 72.685C91.6563 74.5328 91.1498 76.5846 90.3091 78.4444H90.8106C91.3454 78.4657 91.8778 78.3483 92.3728 78.1001C92.8677 77.852 93.3139 77.4786 93.6819 77.0046C93.8366 76.693 94.0668 76.4477 94.3408 76.3027C95.9878 73.7529 98.4216 71.8631 101.273 71.8631C103.633 71.8631 105.816 73.093 105.988 75.3548C106.323 78.4444 104.13 79.0624 103.456 79.0624L103.446 79.0504C102.768 79.0504 101.593 78.8404 101.593 78.0185C101.593 77.1966 103.112 77.6105 102.94 75.7627C102.773 74.5268 101.76 74.1129 100.747 74.1129C97.3743 74.1129 95.1913 79.4583 95.6928 83.7779C95.86 85.4277 96.5336 87.2755 97.8808 87.2755C98.8936 87.2755 100.413 85.4277 101.086 82.752C101.421 81.1082 102.773 79.6683 103.953 79.6683C104.459 79.6683 104.789 79.8723 104.961 80.6942C104.961 81.1082 104.961 81.9301 104.287 84.6058C103.451 86.4536 103.446 87.4855 103.614 88.3074C103.781 89.9513 104.454 91.1871 105.133 91.8051C105.3 92.009 105.467 92.417 105.467 92.417C105.467 92.831 105.3 93.2449 104.794 93.2449C104.626 93.2449 104.459 93.2449 104.287 93.0349C101.76 91.8051 100.747 89.7473 100.408 87.6895C99.4 89.1293 98.22 89.9513 96.8679 89.9513C94.68 89.9513 92.4921 87.4855 92.1479 84.3958C92.0513 83.0808 92.1768 81.7557 92.5167 80.5022C91.5186 81.2821 90.4418 81.7201 89.4536 81.7201H88.6178C86.42 85.6317 84.06 88.3074 82.3736 89.5373C81.8009 89.9093 81.168 90.1223 80.52 90.1612C80.1857 90.1612 79.6793 89.9513 79.5121 89.5373C79.045 88.6254 78.7451 87.1855 78.5632 85.5357C76.1983 88.6974 72.9336 90.3652 71.4193 90.3652C69.7328 90.3652 68.7249 89.1293 68.5578 87.0655V84.8098C69.0593 80.2863 70.4113 77.6105 70.4113 76.7886C70.4067 76.6801 70.3696 76.5774 70.3071 76.5C70.2446 76.4226 70.161 76.3758 70.0721 76.3686C68.8921 76.3686 65.0178 81.3121 64.3393 84.6058L63.8328 87.2755C63.4985 89.1293 61.9793 90.3652 60.9713 90.3652C60.4649 90.3652 60.1257 90.1552 59.9585 89.3333V88.5114L60.1847 87.1136C58.0459 88.9734 55.9072 90.1612 54.8993 90.1612C53.3849 90.1612 52.5393 89.1293 52.3721 87.6895C51.3593 89.3333 50.1842 90.1612 48.6649 90.1612C46.9343 90.1612 45.2429 88.7214 44.4268 86.6036C43.2271 88.2534 41.8553 89.9213 40.2378 91.1871C37.8778 93.0409 35.1834 94.4808 31.9778 94.4808C29.1163 94.4808 26.5842 92.627 25.237 90.9831C23.2113 88.7214 22.0363 85.2237 21.8642 81.9301C20.8563 71.8511 25.9106 58.8925 33.6642 53.133C35.5227 51.9032 37.3763 51.0753 39.2298 51.0753ZM87.2657 70.8192C86.7543 70.8192 86.42 71.8511 86.42 72.877C86.42 74.5208 87.0936 76.3747 87.9393 77.4065C88.2689 76.2842 88.4385 75.1012 88.4408 73.9089C88.4408 71.8511 87.7721 70.8192 87.2657 70.8192Z" stroke="#AF2EFA" stroke-width="10" mask="url(#path-1-outside-1_91_410)"/>
</svg>
