<svg width="118" height="118" viewBox="0 0 118 118" fill="none" xmlns="http://www.w3.org/2000/svg">
<path d="M115.5 58.9999C115.5 63.3348 112.864 67.5652 107.973 70.8262C103.099 74.0756 96.2215 76.1666 88.5 76.1666C80.7785 76.1666 73.9011 74.0756 69.0271 70.8262C64.1356 67.5652 61.5 63.3348 61.5 58.9999C61.5 54.6651 64.1356 50.4346 69.0271 47.1736C73.9011 43.9243 80.7785 41.8333 88.5 41.8333C96.2215 41.8333 103.099 43.9243 107.973 47.1736C112.864 50.4346 115.5 54.6651 115.5 58.9999Z" fill="#19BCFE" stroke="#AF2EFA" stroke-width="5"/>
<path d="M56.5 98.3334C56.5 102.668 53.8644 106.899 48.9729 110.16C44.0989 113.409 37.2215 115.5 29.5 115.5C21.7785 115.5 14.9011 113.409 10.0271 110.16C5.13561 106.899 2.5 102.668 2.5 98.3334C2.5 93.9986 5.13561 89.7681 10.0271 86.5071C14.9011 83.2578 21.7785 81.1667 29.5 81.1667H29.5376H29.5753H29.6131H29.651H29.6889H29.7269H29.765H29.8032H29.8414H29.8797H29.9181H29.9566H29.9952H30.0338H30.0725H30.1113H30.1502H30.1892H30.2282H30.2673H30.3065H30.3458H30.3851H30.4245H30.464H30.5036H30.5433H30.583H30.6228H30.6627H30.7027H30.7427H30.7828H30.823H30.8633H30.9037H30.9441H30.9846H31.0252H31.0659H31.1067H31.1475H31.1884H31.2294H31.2705H31.3116H31.3528H31.3941H31.4355H31.4769H31.5185H31.5601H31.6018H31.6436H31.6854H31.7273H31.7693H31.8114H31.8536H31.8958H31.9381H31.9805H32.023H32.0656H32.1082H32.1509H32.1937H32.2365H32.2795H32.3225H32.3656H32.4088H32.452H32.4954H32.5388H32.5823H32.6259H32.6695H32.7132H32.757H32.8009H32.8449H32.8889H32.933H32.9772H33.0215H33.0659H33.1103H33.1548H33.1994H33.244H33.2888H33.3336H33.3785H33.4235H33.4685H33.5137H33.5589H33.6042H33.6496H33.695H33.7405H33.7861H33.8318H33.8776H33.9234H33.9693H34.0153H34.0614H34.1076H34.1538H34.2001H34.2465H34.2929H34.3395H34.3861H34.4328H34.4796H34.5264H34.5734H34.6204H34.6675H34.7146H34.7619H34.8092H34.8566H34.9041H34.9517H34.9993H35.047H35.0948H35.1427H35.1906H35.2387H35.2868H35.335H35.3832H35.4316H35.48H35.5285H35.5771H35.6257H35.6745H35.7233H35.7722H35.8211H35.8702H35.9193H35.9685H36.0178H36.0672H36.1166H36.1661H36.2157H36.2654H36.3151H36.365H36.4149H36.4649H36.5149H36.5651H36.6153H36.6656H36.716H36.7664H36.817H36.8676H36.9183H36.969H37.0199H37.0708H37.1218H37.1729H37.2241H37.2753H37.3266H37.378H37.4295H37.481H37.5327H37.5844H37.6362H37.688H37.74H37.792H37.8441H37.8963H37.9485H38.0009H38.0533H38.1058H38.1583H38.211H38.2637H38.3165H38.3694H38.4224H38.4754H38.5285H38.5817H38.635H38.6883H38.7418H38.7953H38.8489H38.9025H38.9563H39.0101H39.064H39.118H39.172H39.2262H39.2804H39.3347H39.389H39.4435H39.498H39.5526H39.6073H39.6621H39.7169H39.7718H39.8268H39.8819H39.937H39.9923H40.0476H40.103H40.1584H40.214H40.2696H40.3253H40.3811H40.4369H40.4929H40.5489H40.605H40.6611H40.7174H40.7737H40.8301H40.8866H40.9431H40.9998H41.0565H41.1133H41.1702H41.2271H41.2842H41.3413H41.3984H41.4557H41.5131H41.5705H41.628H41.6856H41.7432H41.8009H41.8588H41.9167H41.9746H42.0327H42.0908H42.149H42.2073H42.2656H42.3241H42.3826H42.4412H42.4999H42.5586H42.6175H42.6764H42.7353H42.7944H42.8536H42.9128H42.9721H43.0315H43.0909H43.1504H43.2101H43.2697H43.3295H43.3894H43.4493H43.5093H43.5694H43.6295H43.6898H43.7501H43.8105H43.871H43.9315H43.9921H44.0529H44.1136H44.1745H44.2355H44.2965H44.3576H44.4187H44.48H44.5413H44.6028H44.6642H44.7258H44.7875H44.8492H44.911H44.9729H45.0348H45.0969H45.159H45.2212H45.2835H45.3458H45.4082H45.4707H45.5333H45.596H45.6587H45.7216H45.7845H45.8474H45.9105H45.9736H46.0368H46.1001H46.1635H46.227H46.2905H46.3541H46.4178H46.4815H46.5454H46.6093H46.6733H46.7374H46.8015H46.8657H46.93H46.9944H47.0589H47.1234H47.1881H47.2528H47.3175H47.3824H47.4473H47.5123H47.5774H47.6426H47.7079H47.7732H47.8386H47.9041H47.9696H48.0353H48.101H48.1668H48.2326H48.2986H48.3646H48.4307H48.4969H48.5632H48.6295H48.696H48.7625H48.829H48.8957H48.9624H49.0292H49.0961H49.1631H49.2301H49.2973H49.3645H49.4318H49.4991H49.5666H49.6341H49.7017H49.7693H49.8371H49.9049H49.9728H50.0408H50.1089H50.177H50.2453H50.3135H50.3819H50.4504H50.5189H50.5875H50.6562H50.725H50.7938H50.8628H50.9318H51.0009H51.07H51.1393H51.2086H51.278H51.3474H51.417H51.4866H51.5563H51.6261H51.696H51.7659H51.8359H51.906H51.9762H52.0465H52.1168H52.1872H52.2577H52.3283H52.3989H52.4697H52.5405H52.6113H52.6823H52.7533H52.8245H52.8957H52.9669H53.0383H53.1097H53.1812H53.2528H53.3245H53.3962H53.468H53.5399H53.6119H53.684H53.7561H53.8283H53.9006H53.973H54.0454H54.118H54.1906H54.2632H54.336H54.4088H54.4818H54.5548H54.6278H54.701H54.7742H54.8475H54.9209H54.9944H55.0679H55.1415H55.2152H55.289H55.3629H55.4368H55.5108H55.5849H55.6591H55.7333H55.8076H55.882H55.9565H56.0311H56.1057H56.1805H56.2552H56.3301H56.4051H56.4801H56.5V81.203V81.2588V81.3145V81.3701V81.4257V81.4811V81.5365V81.5918V81.647V81.7022V81.7572V81.8122V81.8671V81.9219V81.9766V82.0312V82.0858V82.1403V82.1947V82.249V82.3032V82.3574V82.4114V82.4654V82.5193V82.5732V82.6269V82.6805V82.7341V82.7876V82.841V82.8943V82.9476V83.0008V83.0538V83.1068V83.1598V83.2126V83.2653V83.318V83.3706V83.4231V83.4755V83.5279V83.5801V83.6323V83.6844V83.7364V83.7883V83.8402V83.892V83.9436V83.9952V84.0468V84.0982V84.1495V84.2008V84.252V84.3031V84.3541V84.4051V84.456V84.5067V84.5574V84.608V84.6586V84.709V84.7594V84.8097V84.8599V84.91V84.9601V85.01V85.0599V85.1097V85.1594V85.209V85.2586V85.308V85.3574V85.4067V85.4559V85.5051V85.5541V85.6031V85.652V85.7008V85.7495V85.7982V85.8467V85.8952V85.9436V85.9919V86.0401V86.0883V86.1364V86.1843V86.2322V86.2801V86.3278V86.3755V86.423V86.4705V86.5179V86.5653V86.6125V86.6597V86.7068V86.7538V86.8007V86.8475V86.8943V86.9409V86.9875V87.034V87.0805V87.1268V87.1731V87.2192V87.2653V87.3113V87.3573V87.4031V87.4489V87.4946V87.5402V87.5857V87.6311V87.6765V87.7218V87.767V87.8121V87.8571V87.902V87.9469V87.9917V88.0364V88.081V88.1255V88.17V88.2143V88.2586V88.3028V88.347V88.391V88.435V88.4788V88.5226V88.5663V88.61V88.6535V88.697V88.7404V88.7837V88.8269V88.87V88.9131V88.9561V88.9989V89.0418V89.0845V89.1271V89.1697V89.2122V89.2546V89.2969V89.3391V89.3813V89.4233V89.4653V89.5072V89.549V89.5908V89.6324V89.674V89.7155V89.7569V89.7982V89.8395V89.8807V89.9217V89.9627V90.0037V90.0445V90.0853V90.1259V90.1665V90.207V90.2474V90.2878V90.328V90.3682V90.4083V90.4483V90.4883V90.5281V90.5679V90.6076V90.6472V90.6867V90.7261V90.7655V90.8048V90.844V90.8831V90.9221V90.961V90.9999V91.0387V91.0774V91.116V91.1545V91.193V91.2314V91.2696V91.3079V91.346V91.384V91.422V91.4599V91.4976V91.5354V91.573V91.6105V91.648V91.6854V91.7227V91.7599V91.7971V91.8341V91.8711V91.908V91.9448V91.9815V92.0182V92.0547V92.0912V92.1276V92.1639V92.2001V92.2363V92.2724V92.3083V92.3443V92.3801V92.4158V92.4515V92.4871V92.5225V92.558V92.5933V92.6285V92.6637V92.6988V92.7338V92.7687V92.8035V92.8383V92.873V92.9076V92.9421V92.9765V93.0108V93.0451V93.0793V93.1134V93.1474V93.1813V93.2152V93.2489V93.2826V93.3162V93.3497V93.3832V93.4165V93.4498V93.483V93.5161V93.5492V93.5821V93.615V93.6477V93.6804V93.7131V93.7456V93.7781V93.8104V93.8427V93.8749V93.907V93.9391V93.971V94.0029V94.0347V94.0664V94.0981V94.1296V94.1611V94.1925V94.2238V94.255V94.2861V94.3172V94.3482V94.3791V94.4099V94.4406V94.4712V94.5018V94.5323V94.5627V94.593V94.6232V94.6534V94.6834V94.7134V94.7433V94.7732V94.8029V94.8326V94.8621V94.8916V94.9211V94.9504V94.9796V95.0088V95.0379V95.0669V95.0958V95.1246V95.1534V95.1821V95.2107V95.2392V95.2676V95.2959V95.3242V95.3524V95.3805V95.4085V95.4364V95.4643V95.492V95.5197V95.5473V95.5749V95.6023V95.6297V95.6569V95.6841V95.7112V95.7383V95.7652V95.7921V95.8189V95.8456V95.8722V95.8987V95.9252V95.9515V95.9778V96.004V96.0302V96.0562V96.0822V96.1081V96.1338V96.1596V96.1852V96.2107V96.2362V96.2616V96.2869V96.3121V96.3373V96.3623V96.3873V96.4122V96.437V96.4617V96.4864V96.5109V96.5354V96.5598V96.5841V96.6084V96.6325V96.6566V96.6806V96.7045V96.7283V96.7521V96.7757V96.7993V96.8228V96.8462V96.8695V96.8928V96.916V96.939V96.962V96.985V97.0078V97.0306V97.0532V97.0758V97.0983V97.1208V97.1431V97.1654V97.1875V97.2096V97.2317V97.2536V97.2754V97.2972V97.3189V97.3405V97.362V97.3835V97.4048V97.4261V97.4473V97.4684V97.4894V97.5104V97.5313V97.552V97.5727V97.5934V97.6139V97.6344V97.6547V97.675V97.6952V97.7154V97.7354V97.7554V97.7752V97.795V97.8148V97.8344V97.8539V97.8734V97.8928V97.9121V97.9313V97.9505V97.9695V97.9885V98.0074V98.0262V98.0449V98.0636V98.0821V98.1006V98.119V98.1373V98.1556V98.1737V98.1918V98.2098V98.2277V98.2455V98.2633V98.2809V98.2985V98.316V98.3334Z" fill="#09CF83" stroke="#AF2EFA" stroke-width="5"/>
<path d="M56.5 41.8333V76.1666H29.5C21.7785 76.1666 14.9011 74.0756 10.0271 70.8262C5.13561 67.5652 2.5 63.3348 2.5 58.9999C2.5 54.6651 5.13561 50.4346 10.0271 47.1736C14.9011 43.9243 21.7785 41.8333 29.5 41.8333H29.5319H29.5638H29.5959H29.6281H29.6604H29.6927H29.7252H29.7578H29.7905H29.8232H29.8561H29.8891H29.9222H29.9554H29.9887H30.022H30.0555H30.0891H30.1228H30.1566H30.1905H30.2244H30.2585H30.2927H30.327H30.3614H30.3959H30.4305H30.4652H30.5H30.5349H30.5699H30.605H30.6402H30.6755H30.7109H30.7464H30.782H30.8177H30.8535H30.8894H30.9254H30.9615H30.9977H31.034H31.0704H31.1069H31.1435H31.1802H31.217H31.2539H31.2909H31.328H31.3653H31.4026H31.44H31.4775H31.5151H31.5528H31.5906H31.6286H31.6666H31.7047H31.7429H31.7812H31.8197H31.8582H31.8968H31.9355H31.9744H32.0133H32.0523H32.0914H32.1307H32.17H32.2094H32.2489H32.2886H32.3283H32.3681H32.4081H32.4481H32.4882H32.5285H32.5688H32.6092H32.6498H32.6904H32.7312H32.772H32.8129H32.854H32.8951H32.9364H32.9777H33.0192H33.0607H33.1023H33.1441H33.1859H33.2279H33.2699H33.3121H33.3543H33.3967H33.4391H33.4817H33.5243H33.5671H33.61H33.6529H33.696H33.7391H33.7824H33.8257H33.8692H33.9128H33.9564H34.0002H34.044H34.088H34.1321H34.1762H34.2205H34.2649H34.3093H34.3539H34.3986H34.4433H34.4882H34.5332H34.5783H34.6234H34.6687H34.7141H34.7596H34.8051H34.8508H34.8966H34.9425H34.9884H35.0345H35.0807H35.127H35.1734H35.2198H35.2664H35.3131H35.3599H35.4068H35.4538H35.5009H35.548H35.5953H35.6427H35.6902H35.7378H35.7855H35.8333H35.8812H35.9292H35.9773H36.0255H36.0738H36.1222H36.1707H36.2193H36.268H36.3168H36.3657H36.4147H36.4638H36.513H36.5623H36.6117H36.6612H36.7108H36.7605H36.8103H36.8602H36.9102H36.9603H37.0105H37.0608H37.1113H37.1618H37.2124H37.2631H37.3139H37.3648H37.4159H37.467H37.5182H37.5695H37.6209H37.6724H37.7241H37.7758H37.8276H37.8795H37.9316H37.9837H38.0359H38.0882H38.1407H38.1932H38.2458H38.2986H38.3514H38.4043H38.4574H38.5105H38.5637H38.6171H38.6705H38.724H38.7777H38.8314H38.8852H38.9392H38.9932H39.0474H39.1016H39.1559H39.2104H39.2649H39.3196H39.3743H39.4292H39.4841H39.5392H39.5943H39.6496H39.7049H39.7604H39.8159H39.8716H39.9273H39.9832H40.0391H40.0952H40.1513H40.2076H40.264H40.3204H40.377H40.4336H40.4904H40.5472H40.6042H40.6613H40.7184H40.7757H40.8331H40.8905H40.9481H41.0058H41.0635H41.1214H41.1794H41.2374H41.2956H41.3539H41.4123H41.4707H41.5293H41.588H41.6468H41.7056H41.7646H41.8237H41.8829H41.9422H42.0015H42.061H42.1206H42.1803H42.2401H42.2999H42.3599H42.42H42.4802H42.5405H42.6009H42.6614H42.722H42.7826H42.8434H42.9043H42.9653H43.0264H43.0876H43.1489H43.2103H43.2718H43.3334H43.3951H43.4569H43.5188H43.5808H43.6429H43.7051H43.7674H43.8298H43.8923H43.9549H44.0176H44.0804H44.1433H44.2063H44.2695H44.3327H44.396H44.4594H44.5229H44.5865H44.6502H44.714H44.778H44.842H44.9061H44.9703H45.0346H45.099H45.1636H45.2282H45.2929H45.3577H45.4226H45.4877H45.5528H45.618H45.6833H45.7488H45.8143H45.8799H45.9457H46.0115H46.0774H46.1434H46.2096H46.2758H46.3421H46.4086H46.4751H46.5417H46.6085H46.6753H46.7423H46.8093H46.8764H46.9437H47.011H47.0785H47.146H47.2136H47.2814H47.3492H47.4172H47.4852H47.5534H47.6216H47.69H47.7584H47.827H47.8956H47.9644H48.0332H48.1022H48.1712H48.2404H48.3096H48.379H48.4485H48.518H48.5877H48.6574H48.7273H48.7973H48.8673H48.9375H49.0077H49.0781H49.1486H49.2191H49.2898H49.3606H49.4314H49.5024H49.5735H49.6446H49.7159H49.7873H49.8588H49.9303H50.002H50.0738H50.1457H50.2176H50.2897H50.3619H50.4342H50.5066H50.579H50.6516H50.7243H50.7971H50.87H50.9429H51.016H51.0892H51.1625H51.2359H51.3094H51.383H51.4567H51.5304H51.6043H51.6783H51.7524H51.8266H51.9009H51.9753H52.0498H52.1244H52.1991H52.2739H52.3488H52.4238H52.4989H52.5741H52.6494H52.7248H52.8003H52.8759H52.9516H53.0274H53.1033H53.1793H53.2554H53.3316H53.4079H53.4844H53.5609H53.6375H53.7142H53.791H53.8679H53.9449H54.022H54.0993H54.1766H54.254H54.3315H54.4091H54.4869H54.5647H54.6426H54.7206H54.7987H54.877H54.9553H55.0337H55.1122H55.1909H55.2696H55.3484H55.4274H55.5064H55.5855H55.6647H55.7441H55.8235H55.903H55.9827H56.0624H56.1423H56.2222H56.3022H56.3824H56.4626H56.5Z" fill="#A259FF" stroke="#AF2EFA" stroke-width="5"/>
<path d="M56.5 2.5V36.8333H29.5C21.7785 36.8333 14.9011 34.7423 10.0271 31.493C5.13561 28.232 2.5 24.0015 2.5 19.6667C2.5 15.3318 5.13561 11.1014 10.0271 7.84036C14.9011 4.59101 21.7785 2.5 29.5 2.5H29.5319H29.5638H29.5959H29.6281H29.6604H29.6927H29.7252H29.7578H29.7905H29.8232H29.8561H29.8891H29.9222H29.9554H29.9887H30.022H30.0555H30.0891H30.1228H30.1566H30.1905H30.2244H30.2585H30.2927H30.327H30.3614H30.3959H30.4305H30.4652H30.5H30.5349H30.5699H30.605H30.6402H30.6755H30.7109H30.7464H30.782H30.8177H30.8535H30.8894H30.9254H30.9615H30.9977H31.034H31.0704H31.1069H31.1435H31.1802H31.217H31.2539H31.2909H31.328H31.3653H31.4026H31.44H31.4775H31.5151H31.5528H31.5906H31.6286H31.6666H31.7047H31.7429H31.7812H31.8197H31.8582H31.8968H31.9355H31.9744H32.0133H32.0523H32.0914H32.1307H32.17H32.2094H32.2489H32.2886H32.3283H32.3681H32.4081H32.4481H32.4882H32.5285H32.5688H32.6092H32.6498H32.6904H32.7312H32.772H32.8129H32.854H32.8951H32.9364H32.9777H33.0192H33.0607H33.1023H33.1441H33.1859H33.2279H33.2699H33.3121H33.3543H33.3967H33.4391H33.4817H33.5243H33.5671H33.61H33.6529H33.696H33.7391H33.7824H33.8257H33.8692H33.9128H33.9564H34.0002H34.044H34.088H34.1321H34.1762H34.2205H34.2649H34.3093H34.3539H34.3986H34.4433H34.4882H34.5332H34.5783H34.6234H34.6687H34.7141H34.7596H34.8051H34.8508H34.8966H34.9425H34.9884H35.0345H35.0807H35.127H35.1734H35.2198H35.2664H35.3131H35.3599H35.4068H35.4538H35.5009H35.548H35.5953H35.6427H35.6902H35.7378H35.7855H35.8333H35.8812H35.9292H35.9773H36.0255H36.0738H36.1222H36.1707H36.2193H36.268H36.3168H36.3657H36.4147H36.4638H36.513H36.5623H36.6117H36.6612H36.7108H36.7605H36.8103H36.8602H36.9102H36.9603H37.0105H37.0608H37.1113H37.1618H37.2124H37.2631H37.3139H37.3648H37.4159H37.467H37.5182H37.5695H37.6209H37.6724H37.7241H37.7758H37.8276H37.8795H37.9316H37.9837H38.0359H38.0882H38.1407H38.1932H38.2458H38.2986H38.3514H38.4043H38.4574H38.5105H38.5637H38.6171H38.6705H38.724H38.7777H38.8314H38.8852H38.9392H38.9932H39.0474H39.1016H39.1559H39.2104H39.2649H39.3196H39.3743H39.4292H39.4841H39.5392H39.5943H39.6496H39.7049H39.7604H39.8159H39.8716H39.9273H39.9832H40.0391H40.0952H40.1513H40.2076H40.264H40.3204H40.377H40.4336H40.4904H40.5472H40.6042H40.6613H40.7184H40.7757H40.8331H40.8905H40.9481H41.0058H41.0635H41.1214H41.1794H41.2374H41.2956H41.3539H41.4123H41.4707H41.5293H41.588H41.6468H41.7056H41.7646H41.8237H41.8829H41.9422H42.0015H42.061H42.1206H42.1803H42.2401H42.2999H42.3599H42.42H42.4802H42.5405H42.6009H42.6614H42.722H42.7826H42.8434H42.9043H42.9653H43.0264H43.0876H43.1489H43.2103H43.2718H43.3334H43.3951H43.4569H43.5188H43.5808H43.6429H43.7051H43.7674H43.8298H43.8923H43.9549H44.0176H44.0804H44.1433H44.2063H44.2695H44.3327H44.396H44.4594H44.5229H44.5865H44.6502H44.714H44.778H44.842H44.9061H44.9703H45.0346H45.099H45.1636H45.2282H45.2929H45.3577H45.4226H45.4877H45.5528H45.618H45.6833H45.7488H45.8143H45.8799H45.9457H46.0115H46.0774H46.1434H46.2096H46.2758H46.3421H46.4086H46.4751H46.5417H46.6085H46.6753H46.7423H46.8093H46.8764H46.9437H47.011H47.0785H47.146H47.2136H47.2814H47.3492H47.4172H47.4852H47.5534H47.6216H47.69H47.7584H47.827H47.8956H47.9644H48.0332H48.1022H48.1712H48.2404H48.3096H48.379H48.4485H48.518H48.5877H48.6574H48.7273H48.7973H48.8673H48.9375H49.0077H49.0781H49.1486H49.2191H49.2898H49.3606H49.4314H49.5024H49.5735H49.6446H49.7159H49.7873H49.8588H49.9303H50.002H50.0738H50.1457H50.2176H50.2897H50.3619H50.4342H50.5066H50.579H50.6516H50.7243H50.7971H50.87H50.9429H51.016H51.0892H51.1625H51.2359H51.3094H51.383H51.4567H51.5304H51.6043H51.6783H51.7524H51.8266H51.9009H51.9753H52.0498H52.1244H52.1991H52.2739H52.3488H52.4238H52.4989H52.5741H52.6494H52.7248H52.8003H52.8759H52.9516H53.0274H53.1033H53.1793H53.2554H53.3316H53.4079H53.4844H53.5609H53.6375H53.7142H53.791H53.8679H53.9449H54.022H54.0993H54.1766H54.254H54.3315H54.4091H54.4869H54.5647H54.6426H54.7206H54.7987H54.877H54.9553H55.0337H55.1122H55.1909H55.2696H55.3484H55.4274H55.5064H55.5855H55.6647H55.7441H55.8235H55.903H55.9827H56.0624H56.1423H56.2222H56.3022H56.3824H56.4626H56.5Z" fill="#F24E1E" stroke="#AF2EFA" stroke-width="5"/>
<path d="M88.5 36.8333H61.5V2.5H88.5C96.2215 2.5 103.099 4.59101 107.973 7.84036C112.864 11.1014 115.5 15.3318 115.5 19.6667C115.5 24.0015 112.864 28.232 107.973 31.493C103.099 34.7423 96.2215 36.8333 88.5 36.8333Z" fill="#FF7262" stroke="#AF2EFA" stroke-width="5"/>
</svg>
