<svg width="130" height="157" viewBox="0 0 130 157" fill="none" xmlns="http://www.w3.org/2000/svg">
<path d="M5.59953 21.8033L5.59954 21.8033C8.33085 15.2624 12.7276 9.85086 18.2402 6.42343L18.2402 6.42342C21.5422 4.37052 25.257 3.41893 29.9041 2.95565C34.4748 2.49997 40.1781 2.49998 47.5286 2.5H47.6669H82.3331H82.4714C89.8218 2.49998 95.5251 2.49997 100.096 2.95565C104.743 3.41893 108.458 4.37052 111.76 6.42342C117.272 9.85083 121.669 15.2624 124.4 21.8033C126.006 25.6478 126.76 29.9774 127.131 35.5239C127.5 41.0334 127.5 47.9361 127.5 56.9674V57.0627V99.3629V99.4582C127.5 108.489 127.5 115.392 127.131 120.902C126.76 126.448 126.006 130.778 124.4 134.622M5.59953 21.8033L124.4 134.622M5.59953 21.8033C3.99417 25.6478 3.24028 29.9774 2.8689 35.5239C2.49999 41.0334 2.5 47.9359 2.5 56.967V57.0627V99.3629V99.4585C2.5 108.49 2.49999 115.392 2.8689 120.902C3.24028 126.448 3.99417 130.778 5.59953 134.622C8.33083 141.163 12.7276 146.575 18.2402 150.002C21.5422 152.055 25.257 153.007 29.9041 153.47C34.4748 153.926 40.1782 153.926 47.5286 153.926H47.6669H82.3331H82.4713C89.8218 153.926 95.5251 153.926 100.096 153.47C104.743 153.007 108.458 152.055 111.76 150.002M5.59953 21.8033L111.76 150.002M124.4 134.622C121.669 141.163 117.272 146.575 111.76 150.002M124.4 134.622L111.76 150.002" fill="white" stroke="#AF2EFA" stroke-width="5"/>
<path d="M30.7144 107.125V128.011C30.7144 132.269 33.5726 135.72 37.0929 135.72H54.0951V107.125H30.7144Z" fill="#188038"/>
<path d="M75.9197 135.726H92.9061C96.4264 135.726 99.2845 132.275 99.2845 128.017V107.125H75.9197V135.726Z" fill="#1967D2"/>
<path d="M75.9135 107.125H54.0933V135.726H75.9135V107.125Z" fill="#34A853"/>
<path d="M37.0929 20.6885C33.5726 20.6885 30.7144 24.1395 30.7144 28.3973V107.125H54.0951V49.5003H75.9154V20.6885H37.0929Z" fill="#FBBC05"/>
<path d="M99.2845 49.5015H75.9197V107.125H99.2845V49.5015Z" fill="#4285F4"/>
<path d="M75.9197 49.5003H99.2794L75.9197 20.6885V49.5003Z" fill="#EA4335"/>
</svg>
